<?xml version="1.0" standalone="no"?><!DOCTYPE svg PUBLIC "-//W3C//DTD SVG 1.1//EN" "http://www.w3.org/Graphics/SVG/1.1/DTD/svg11.dtd"><svg class="icon" width="32px" height="32.00px" viewBox="0 0 1024 1024" version="1.1" xmlns="http://www.w3.org/2000/svg"><path d="M663.93429333 656.67072c-10.19448889 13.1072-7.82791111 33.35054222 5.82542222 45.62033778 60.22030222 54.10360889 94.51747555 130.38023111 94.59029334 210.33415111 0 20.02488889 16.80270222 36.28145778 37.66499556 36.28145778C822.84088889 948.90666667 839.68 932.63189333 839.68 912.62520889c-0.10922667-100.12444445-43.10812445-195.62496-118.58375111-263.47292444a38.72085333 38.72085333 0 0 0-53.59388444 2.18453333l-1.45635556 1.54737777-2.11171556 3.78652445zM263.45472 387.46339555c0 71.34321778 31.05678222 138.69966222 84.75989333 184.26538667l12.88874667 10.92266667-15.16430222 7.50023111C225.06154667 649.80764445 147.91111111 775.18165333 147.91111111 912.62520889 147.91111111 932.70471111 163.84 948.90666667 183.46439111 948.90666667c19.56977778 0 35.55328-16.20195555 35.55328-36.28145778 0-157.39562667 124.62762667-285.62773333 277.92725334-285.62773334 128.70542222 0 233.50840889-107.40622222 233.50840888-239.57048888C730.43512889 255.26272 625.59573333 147.91111111 496.92672 147.91111111c-128.70542222 0-233.472 107.36981333-233.472 239.55228444zM780.47914667 238.93333333c-4.82417778 0.50972445-9.46631111 2.00248889-13.72615112 4.42368-8.28302222 4.69674667-14.38151111 12.56106667-16.98474666 21.84533334-5.40672 19.13287111 5.38851555 39.21237333 24.26652444 44.91036444 49.98940445 14.96405333 84.90552889 63.04199111 84.90552889 116.87253334 0.09102222 64.89884445-49.17020445 118.36529778-112.06656 121.3690311-19.47875555 0.47331555-35.06176 17.25781333-34.60664889 37.26449778a36.22684445 36.22684445 0 0 0 37.06424889 35.58968889l0.29127111 0.01820445c101.70823111-4.84238222 181.24344889-90.27584 181.07960889-194.24142222 0.03640889-85.97959111-55.97866667-162.74773333-134.60366222-186.41351112l-12.26979555-1.58378666-3.34961778-0.05461334z m-506.81173334 370.46044445c1.31072-0.72817778 2.23914667-1.29251555 3.67729778-2.31196445 9.63015111-6.22592 15.63761778-16.65706667 16.16554667-28.21688888a36.90040889 36.90040889 0 0 0-8.70172445-25.70467556 32.64056889 32.64056889 0 0 0-23.08323555-11.52341334c-60.29312-2.94912-107.42442667-55.39612445-107.33340445-118.69297777 0-52.48341333 33.31413333-99.54190222 81.26464-114.28750223 8.48327111-2.60323555 15.65582222-8.68352 19.97027556-16.94833777 4.31445333-8.31943111 5.33390222-18.09521778 2.80348444-27.21564445a35.17098667 35.17098667 0 0 0-16.01991111-21.20817778 31.56650667 31.56650667 0 0 0-25.21315555-2.96732444c-76.24021333 23.41091555-129.57923555 98.39502222-129.57923556 182.59057778 0 51.70062222 19.6608 100.7616 54.54051556 136.47872l9.86680888 10.12167111-12.288 7.09973333C54.8864 625.48650667 1.96608 719.85834667 2.27555555 822.40398222c0 12.72490667 6.44437333 24.44856889 16.78449778 30.76551111a31.63932445 31.63932445 0 0 0 33.18670222 0c10.35832889-6.31694222 16.80270222-18.05880889 16.80270223-30.78371555-0.41870222-112.64910222 84.10453333-205.40074667 191.18307555-208.98702223a27.30666667 27.30666667 0 0 0 3.2768-0.2912711l1.25610667-0.14563556 8.88376889-3.56807111z m596.45041778 69.15868444c-15.36455111-12.37902222-16.384-32.768-2.36657778-46.18467555 14.70919111-13.99921778 40.10439111-14.92764445 56.16071112-2.05710222C986.09834667 680.24547555 1021.72444445 751.09717333 1021.72444445 824.69774222c0 11.63264-7.20896 22.50069333-19.11466667 28.50816a45.21984 45.21984 0 0 1-40.04977778 0c-11.92391111-6.00746667-19.15107555-16.87552-19.15107555-28.48995555-0.07281778-55.63278222-26.66951111-108.64412445-73.29109334-146.18168889zM498.34666667 548.40888889c-90.29404445 0-163.84-73.50954667-163.84-163.85820444 0-90.34865778 73.52775111-163.82179555 163.84-163.82179556 90.29404445 0 163.84 73.50954667 163.84 163.82179556 0 90.34865778-73.54595555 163.85820445-163.84 163.85820444z" /></svg>
