<?xml version="1.0" standalone="no"?><!DOCTYPE svg PUBLIC "-//W3C//DTD SVG 1.1//EN" "http://www.w3.org/Graphics/SVG/1.1/DTD/svg11.dtd"><svg t="1626342827986" class="icon" viewBox="0 0 1024 1024" version="1.1" xmlns="http://www.w3.org/2000/svg" p-id="1454" xmlns:xlink="http://www.w3.org/1999/xlink" width="32" height="32"><defs><style type="text/css"></style></defs><path d="M563.55498667 513.41994667l301.82968888-300.26410667c14.27228445-14.19946667 14.34510222-37.20988445 0.14563556-51.48216889-14.23587555-14.30869333-37.20988445-14.34510222-51.48216889-0.14563556L512.14563555 461.82855111l-299.28106666-300.19128889c-14.16305778-14.19946667-37.20988445-14.27228445-51.48216889-0.07281777-14.23587555 14.19946667-14.27228445 37.24629333-0.07281778 51.51857777l299.20824889 300.11847111L158.83377778 813.28355555c-14.27228445 14.19946667-14.34510222 37.20988445-0.14563556 51.4821689a36.33720889 36.33720889 0 0 0 25.81390223 10.74062222c9.28426667 0 18.56853333-3.53166222 25.66826666-10.59498667l301.75687111-300.15488 302.01173333 302.92195555c7.09973333 7.13614222 16.42040889 10.70421333 25.77749334 10.70421334a36.34062222 36.34062222 0 0 0 25.70467556-10.63139556c14.23587555-14.19946667 14.27228445-37.20988445 0.07281777-51.48216888L563.55498667 513.41994667z" p-id="1455"></path></svg>
