<?xml version="1.0" standalone="no"?><!DOCTYPE svg PUBLIC "-//W3C//DTD SVG 1.1//EN" "http://www.w3.org/Graphics/SVG/1.1/DTD/svg11.dtd"><svg class="icon" width="32px" height="32.00px" viewBox="0 0 1024 1024" version="1.1" xmlns="http://www.w3.org/2000/svg"><path d="M588.23111111 88.74666667l394.80888889 186.59555555c33.59630222 15.61031111 48.2304 56.27904 31.85777778 89.88444445a65.54965333 65.54965333 0 0 1-31.85777778 32.99555555l-125.15555555 59.14965333v299.41077334c0 56.50432-32.68266667 107.90798222-83.84967112 131.87982222C686.68984889 929.58378667 599.34492445 950.04444445 512 950.04444445s-174.68984889-20.46065778-262.03477333-61.38311112C198.79936 864.69176889 166.11555555 813.28810667 166.11555555 756.78378667v-299.25831112L40.96 398.22222222c-33.45521778-16.00056889-47.95960889-56.08106667-32.34019555-89.99594667L9.10222222 307.2c6.56952889-14.06293333 17.98599111-25.46801778 31.85777778-31.85777778l391.39555555-185.45777777c48.81066667-23.98208 105.98741333-24.08903111 155.87555556-1.13777778z m196.83555556 408.90595555l-191.82705778 80.76856889a209.35111111 209.35111111 0 0 1-162.47921778 0L238.93333333 497.65148445v259.13116444a72.81777778 72.81777778 0 0 0 41.92483556 65.93991111C358.76977778 859.22474667 435.61870222 877.22666667 512 877.22666667c76.38016 0 153.23022222-18.00192 231.14183111-54.50410667A72.81777778 72.81777778 0 0 0 785.06666667 756.78264889V497.65262222zM944.35555555 469.90222222c20.10794667 0 36.40888889 16.30094222 36.4088889 36.40888889v109.22666667c0 20.10794667-16.30094222 36.40888889-36.4088889 36.40888889-20.10794667 0-36.40888889-16.30094222-36.40888888-36.40888889v-109.22666667c0-20.10794667 16.30094222-36.40888889 36.40888888-36.40888889zM559.00273778 158.90659555c-26.07104-11.71342222-73.24103111-11.65767111-98.20273778 0.3584h-1.13777778L120.35640889 320.17066667l-0.34247111 0.16611555c-8.83939555 4.41571555-12.55992889 15.11310222-8.30577778 24.08220445a18.20444445 18.20444445 0 0 0 8.77112889 8.70627555L459.66222222 510.88156445l0.77027556 0.35726222c25.65688889 11.66677333 72.87352889 11.71911111 98.21639111-0.35726222h1.13777778l343.23114666-157.71989334 0.34019556-0.16042666c8.89400889-4.30762667 12.74538667-14.96177778 8.60046222-23.98208a18.20444445 18.20444445 0 0 0-8.81777778-8.8837689L559.78666667 159.26499555z" /></svg>
