<?xml version="1.0" standalone="no"?><!DOCTYPE svg PUBLIC "-//W3C//DTD SVG 1.1//EN" "http://www.w3.org/Graphics/SVG/1.1/DTD/svg11.dtd"><svg class="icon" width="32px" height="32.00px" viewBox="0 0 1024 1024" version="1.1" xmlns="http://www.w3.org/2000/svg"><path d="M893.59913718 973.26664059H141.66698667c-68.08826311 0-123.4819603-55.39491082-123.4819603-123.48317392V305.49970489c0-68.08826311 55.39369718-123.48317392 123.4819603-123.48317392h751.93093688c68.08826311 0 123.4819603 55.39491082 123.4819603 123.48317392v544.28376178c0.00121363 68.08947675-55.39369718 123.48317392-123.48074667 123.48317392zM141.66698667 259.69004089c-25.25927348 0-45.809664 20.55039052-45.809664 45.81087763v544.28376178c0 25.25927348 20.55039052 45.81087763 45.809664 45.81087762h751.93093688c25.25927348 0 45.809664-20.55160415 45.809664-45.81087762V305.49970489c0-25.25927348-20.55039052-45.81087763-45.809664-45.81087764H141.66698667zM55.20073008 438.68706133h917.45788207v77.6722963H55.20073008zM516.66033778 676.54997333c-82.14088059 0-148.96696889-66.8260883-148.96696889-148.96696888 0-28.90258963 8.29758578-56.94714311 23.99588503-81.1008l65.12579319 42.32776058c-7.49052208 11.52462697-11.44938192 24.93159348-11.44938193 38.77303942 0 39.31310459 31.98278163 71.29467259 71.2946726 71.29467258 39.31310459 0 71.29588622-31.98278163 71.29588622-71.29467258 0-12.85597867-3.44670815-25.43889067-9.96754015-36.39068445l66.73749333-39.73666133c13.67517867 22.96551348 20.90234311 49.29035378 20.90234312 76.12855941 0 82.13845333-66.82730192 148.96575525-148.96818252 148.96575525zM653.99466667 259.56503703H371.21896297c-29.44508208 0-53.3997037-23.95462163-53.39970372-53.3997037v-104.37214815c0-29.44508208 23.95462163-53.3997037 53.39970372-53.3997037h282.7757037c29.44508208 0 53.3997037 23.95462163 53.3997037 53.3997037v104.37214815c0 29.44508208-23.95462163 53.3997037-53.3997037 53.3997037z m-258.50311112-77.67229628h234.23051853v-55.82696297H395.49155555v55.82696297z" /></svg>
