<?xml version="1.0" standalone="no"?><!DOCTYPE svg PUBLIC "-//W3C//DTD SVG 1.1//EN" "http://www.w3.org/Graphics/SVG/1.1/DTD/svg11.dtd"><svg t="1625543697847" class="icon" viewBox="0 0 1024 1024" version="1.1" xmlns="http://www.w3.org/2000/svg" p-id="1755" xmlns:xlink="http://www.w3.org/1999/xlink" width="32" height="32"><defs><style type="text/css"></style></defs><path d="M864.885459 178.587587C680.31484999 21.16635401 394.653732 9.59541399 195.01267799 151.212435l-6.03946699 4.346158C-2.201301 295.425863-54.637416 538.076949 63.386176 731.678536l0.84665399 1.41109001L2.201301 919.240657l-0.11288701 0.282218c-1.128872 3.330173-1.806196 6.71678999-2.03196999 10.216294l-0.056444 0.903098c-0.169331 4.459045 0.395105 8.861647 1.693308 13.094917l0.225775 0.39510599c1.693308 5.305699 4.459045 10.21629399 8.24076699 14.39312101l0.16933101 0.225774c3.499504 3.78172199 7.732775 6.886121 12.417594 9.087422l0.451549 0.225774 0.62088 0.282218c4.120384 1.806196 8.522985 2.878624 13.03847399 3.160842l0.62088 0.056444 0.84665401 0.056444c3.21728601 0.112887 6.434572-0.22577401 9.538971-0.903098l0.338661-0.056444 233.055672-49.613934 1.072429 0.507992c221.428288 100.074523 492.752728 43.34869401 641.36875699-136.988645 153.69595401-186.433249 128.18344201-446.468967-58.81424299-605.978613z m-1.919083 555.91313c-128.12699799 155.50215001-368.068791 203.027671-559.751295 109.952155l-0.62088-0.28221801a39.79274601 39.79274601 0 0 0-24.778745-2.76573699l-179.32135399 38.15588099 46.453092-139.41572 0.16933099-0.62088a39.341197 39.341197 0 0 0-4.910594-33.86616699l-3.27372899-4.910594C31.269761 539.149377 74.39268 333.35597001 240.562672 215.445265c170.34682-120.845772 416.215191-110.911697 573.241319 23.028994 154.599052 131.852276 175.313857 343.007827 49.162385 496.026458z" p-id="1756"></path><path d="M512 750.417815m-47.97706999 0a47.97706999 47.97706999 0 1 0 95.95414 0 47.97706999 47.97706999 0 1 0-95.95414 0Z" p-id="1757"></path><path d="M642.723404 283.064712l-1.35464601-1.354647c-1.354647-1.41108999-2.765737-2.709293-4.176828-4.06394-75.690883-71.062507-196.028663-69.143424-269.29246999 4.289714l-23.988535 24.10142299-0.451549 0.451548a38.889648 38.889648 0 0 0 0.507993 54.52452901c15.183331 15.183331 39.79274601 15.126888 54.97607699-0.056443l24.04497901-24.101423 1.354646-1.29820301c43.743799-42.445596 115.144967-43.010032 159.735421-1.18531499 1.128872 1.015985 2.201301 2.08841401 3.273729 3.160842l1.919083 1.975526 1.015985 1.072429c32.737295 34.487047 30.987543 87.713372-4.17682701 120.168449l-0.50799299 0.507992-1.580421 1.58042099c-0.677323 0.677323-1.41108999 1.354647-2.088413 2.03197001-3.555948 3.330173-7.168339 6.603903-10.89361701 9.70830199l-1.69330899 1.41109001-4.402601 3.555947-1.86264 1.467534c-1.580421 1.241759-3.21728601 2.483519-4.85414999 3.725279l-1.91908301 1.46753399-4.45904499 3.27372901-19.868152 14.506008-0.564436 0.451549-1.35464601 1.072429c-0.959541 0.733767-1.919083 1.41108999-2.822181 2.14485699l-1.806195 1.41109001-1.749752 1.41108999c-17.21530201 13.65935399-28.22180599 25.512512-37.252784 40.35718301-13.09491799 21.505016-19.41660201 46.622423-19.41660201 77.15841699 0 21.505016 17.441076 38.889648 38.88964802 38.889648s38.833205-17.441076 38.83320499-38.889648c0-16.368647 2.59640599-27.770257 8.071436-36.74479099 0.28221801-0.507993 0.62088-1.015985 0.959542-1.523978l0.507992-0.73376701c0.507993-0.790211 1.072429-1.52397801 1.63686501-2.257744l0.564436-0.73376699c0.677323-0.90309799 1.46753399-1.749752 2.257744-2.65285l0.73376699-0.79021101c0.22577401-0.28221801 0.507993-0.507993 0.733767-0.79020999l0.733767-0.790211 0.79021101-0.79021c0.22577401-0.28221801 0.507993-0.507993 0.79020999-0.790211l0.84665401-0.79021001 0.90309799-0.79021099 0.90309801-0.846654 0.95954099-0.846654 0.959542-0.846654 1.01598501-0.84665501 1.072428-0.90309699 1.07242899-0.903098c0.169331-0.169331 0.395105-0.28221801 0.564436-0.45154901l1.128872-0.90309799 0.564437-0.451549 1.185315-0.95954101 0.62088-0.50799299 1.29820301-0.959541 0.677324-0.507993 2.93506699-2.2013 22.859663-16.70730901 0.959541-0.73376699 2.144858-1.63686501c11.740271-8.861647 21.27924199-16.87664 30.36666301-25.568956l1.41108999-1.41108999c0.507993-0.451549 1.015985-0.959541 1.46753401-1.411091l1.01598499-1.015985 1.354646-1.241759c65.869695-62.82174 67.67588999-165.88777401 3.89461-230.91081501l-1.975527-1.97552599z" p-id="1758"></path></svg>