<?xml version="1.0" standalone="no"?><!DOCTYPE svg PUBLIC "-//W3C//DTD SVG 1.1//EN" "http://www.w3.org/Graphics/SVG/1.1/DTD/svg11.dtd"><svg class="icon" width="32px" height="32.00px" viewBox="0 0 1024 1024" version="1.1" xmlns="http://www.w3.org/2000/svg"><path d="M225.39377778 131.64088889v763.56266666H75.54844445V131.64088889h149.84533333M-0.56888889 109.45422222v807.936c0 29.80977778 24.12088889 53.93066667 53.93066667 53.93066667h194.21866667c29.80977778 0 53.93066667-24.12088889 53.93066666-53.93066667V109.45422222c0-29.80977778-24.12088889-53.93066667-53.93066666-53.93066667H53.47555555c-29.80977778 0-54.04444445 24.12088889-54.04444444 53.93066667zM189.89511111 286.49244445h-76.23111111v56.32h76.23111111v-56.32zM189.89511111 362.60977778h-76.23111111v56.32h76.23111111v-56.32zM189.89511111 438.72711111h-76.23111111v56.32h76.23111111v-56.32zM588.11733333 131.64088889v763.56266666H438.15822222V131.64088889h149.95911111m-226.07644444-22.18666667v807.936c0 29.80977778 24.12088889 53.93066667 53.93066666 53.93066667h194.21866667c29.80977778 0 53.93066667-24.12088889 53.93066667-53.93066667V109.45422222c0-29.80977778-24.12088889-53.93066667-53.93066667-53.93066667H416.08533333c-29.80977778 0-54.04444445 24.12088889-54.04444444 53.93066667zM552.50488889 286.49244445h-76.23111111v56.32h76.23111111v-56.32zM552.50488889 362.60977778h-76.23111111v56.32h76.23111111v-56.32zM552.50488889 438.72711111h-76.23111111v56.32h76.23111111v-56.32zM950.72711111 131.64088889v763.56266666H800.88177778V131.64088889h149.84533333M724.76444445 109.45422222v807.936c0 29.80977778 24.12088889 53.93066667 53.93066666 53.93066667H972.8c29.80977778 0 53.93066667-24.12088889 53.93066667-53.93066667V109.45422222c0-29.80977778-24.12088889-53.93066667-53.93066667-53.93066667H778.69511111c-29.80977778 0-53.93066667 24.12088889-53.93066666 53.93066667zM915.11466667 286.49244445h-76.23111112v56.32h76.23111112v-56.32zM915.11466667 362.60977778h-76.23111112v56.32h76.23111112v-56.32zM915.11466667 438.72711111h-76.23111112v56.32h76.23111112v-56.32z" /></svg>
