<?xml version="1.0" standalone="no"?><!DOCTYPE svg PUBLIC "-//W3C//DTD SVG 1.1//EN" "http://www.w3.org/Graphics/SVG/1.1/DTD/svg11.dtd"><svg class="icon" width="32px" height="32.00px" viewBox="0 0 1024 1024" version="1.1" xmlns="http://www.w3.org/2000/svg"><path d="M508.49999999 50c54.30000001 0 105.4 21.10000001 143.80000002 59.50000001 38.4 38.4 59.50000001 89.50000001 59.49999999 143.79999998s-21.10000001 105.4-59.49999999 143.8c-38.4 38.4-89.50000001 59.50000001-143.8 59.50000001s-105.4-21.10000001-143.8-59.50000001c-38.4-38.4-59.50000001-89.50000001-59.50000001-143.8s21.10000001-105.4 59.50000001-143.8C403.2 71.09999999 454.2 50 508.49999999 50M508.49999999 0C368.6 0 255.2 113.4 255.2 253.29999999c0 139.90000001 113.4 253.30000001 253.30000001 253.30000001 139.90000001 0 253.30000001-113.4 253.29999999-253.30000001C761.8 113.4 648.4 0 508.49999999 0L508.49999999 0ZM101.49999999 854.50000001L101.49999999 854.50000001C101.49999999 853.90000001 101.49999999 854.50000001 101.49999999 854.50000001ZM160.6 854.50000001C160.6 854.50000001 160.6 854.50000001 160.6 854.50000001c0-192.10000001 155.70000001-347.70000001 347.70000001-347.70000001 90.90000001 0 173.6 34.90000001 235.59999998 92l54.20000002-19.30000001c-74.4-81-171.2-121.8-289.80000002-121.79999998-224.70000001 0-396.90000001 172.2-396.89999999 396.89999999M922.50000001 629.4L725.8 686 529.10000001 629.4 529.10000001 567.50000001 725.90000001 624.10000001 922.50000001 567.50000001ZM920.10000001 654c0 0-25.50000001 289-194.30000001 370C543 914.10000001 532 653.8 532 653.8L725.8 727 920.10000001 654Z" /></svg>
